PathFileType	4	(X/Y/Z)	AB11\squats_1.trc
DataRate	CameraRate	NumFrames	NumMarkers	Units	OrigDataRate	OrigDataStartFrame	OrigNumFrames
200.000000	200.000000	4	35	mm	200.000000	158	317
Frame#	Time	C7			LSHO			STRN			LASI			RASI			LPSI			RPSI			LGTR			RGTR			LTHC			LTHL			LTHR			LKNE			LMKNE			LSHC			LSHL			LSHR			LANK			LMANK			LMT1			LMT5			LCAL			RTHC			RTHL			RTHR			RKNE			RMKNE			RSHC			RSHL			RSHR			RANK			RMANK			RMT1			RMT5			RCAL			
		X1	Y1	Z1	X2	Y2	Z2	X3	Y3	Z3	X4	Y4	Z4	X5	Y5	Z5	X6	Y6	Z6	X7	Y7	Z7	X8	Y8	Z8	X9	Y9	Z9	X10	Y10	Z10	X11	Y11	Z11	X12	Y12	Z12	X13	Y13	Z13	X14	Y14	Z14	X15	Y15	Z15	X16	Y16	Z16	X17	Y17	Z17	X18	Y18	Z18	X19	Y19	Z19	X20	Y20	Z20	X21	Y21	Z21	X22	Y22	Z22	X23	Y23	Z23	X24	Y24	Z24	X25	Y25	Z25	X26	Y26	Z26	X27	Y27	Z27	X28	Y28	Z28	X29	Y29	Z29	X30	Y30	Z30	X31	Y31	Z31	X32	Y32	Z32	X33	Y33	Z33	X34	Y34	Z34	X35	Y35	Z35	

159	22.445	-2256.935912398881	800.288143885174	2505.452543490994	-2175.738078355406	750.163558071466	2386.097211824417	-2179.62179123426	670.5547309633263	2488.04675337257	-2405.602990475393	472.0548786493368	2351.168423877985	-2413.335912309333	484.7088257876524	2595.7721130638	-2610.973344707036	501.4639326559885	2423.548905381549	-2614.747810871852	505.2867453683116	2517.950096797377	-2478.627193998665	464.8106809425351	2272.708088172837	-2524.659176027982	471.7916006115755	2679.21017820887	-2344.193712590038	355.6567856012395	2255.666002350023	-2264.339154508906	486.2306273028988	2334.292153881585	-2258.106697668509	315.3783940684779	2311.584729282712	-2144.15388049576	377.3377226358589	2244.011815657103	-2125.564999804411	356.4382115527059	2380.35023424988	-2239.150436410931	315.4923274985973	2229.807733116273	-2237.222523494579	178.1349197048519	2249.839227059201	-2309.366154023839	235.8094903496056	2303.826460106004	-2342.228097036435	96.19679744394821	2225.36825915435	-2318.679307235716	93.96108107983714	2309.630674578884	-2205.981777415011	61.05194215799659	2271.634168329588	-2246.43179870104	55.83187047113936	2191.792828387614	-2415.277338303354	68.85301334594534	2266.52914515968	-2242.327445593834	475.4131056227694	2579.268852587447	-2360.002574127172	407.2280200063444	2699.387962342697	-2309.230287115863	352.1253666461046	2691.285996415177	-2169.473783039316	398.659889124558	2709.974278728413	-2145.190455197805	347.7570790722438	2577.950543216996	-2233.975071624209	171.0087274448841	2684.399098582547	-2328.603968858313	214.4844019868986	2659.866192632695	-2266.454783132642	263.4636648136823	2727.895843511314	-2344.439936298073	93.61966798149582	2722.672229685097	-2323.771700540971	87.61242094452246	2640.599148839095	-2203.114984463366	64.58901985271362	2687.61206302617	-2239.697161351278	53.03195852019753	2763.545722430514	-2409.956695237269	64.68528011471274	2672.962765024847	
160	22.45	-2257.237391967887	800.8381002426122	2505.67511935347	-2176.047618385142	750.9015610771185	2386.247252887369	-2179.967359290451	671.3497676308273	2488.197138256471	-2405.864736369624	472.7341047467268	2351.222168250816	-2413.645303086285	485.3881938405805	2595.901151196826	-2611.24065975461	502.2456783697545	2423.580666471381	-2615.032807564201	506.0549279972543	2517.993450290786	-2478.926569267564	465.5184835349518	2272.706166421439	-2524.981271276953	472.4808747267733	2679.239470034707	-2344.536459248393	356.1339174791049	2255.780060642085	-2264.55064527557	486.6591229066655	2334.326923162934	-2258.370557887399	315.6942559869009	2311.743687428733	-2144.461873750742	377.5309344378916	2244.156860351501	-2125.959118109652	356.6575543543717	2380.461905171085	-2239.365720065488	315.6060337144349	2229.883736496625	-2237.339887584129	178.1954157453264	2249.870701467011	-2309.561184238212	235.8460794288928	2303.847218889225	-2342.277062759644	96.17439999877975	2225.353012150213	-2318.751109324478	93.97855282236387	2309.613685273736	-2206.006615611217	61.05906708371425	2271.666129980999	-2246.463030649561	55.83910624318852	2191.786605483352	-2415.312824436592	68.82981154849683	2266.514523077006	-2242.609474668157	475.7589221782251	2579.194519088631	-2360.309306491991	407.6599083777037	2699.316164595991	-2309.543500214575	352.4976112007354	2691.125423434971	-2169.761144717447	398.8243199537533	2709.778252654456	-2145.630955003964	347.8863799363945	2577.781536566589	-2234.084999786478	171.090961115746	2684.355980977176	-2328.790106040179	214.4729056517647	2659.862037987602	-2266.591939472524	263.5450375291763	2727.84877670403	-2344.50357362692	93.56833111632467	2722.69658826136	-2323.809439040217	87.60473826753524	2640.606389870798	-2203.14642372138	64.62599859614279	2687.607079262471	-2239.704493783411	53.02411387597112	2763.532623181584	-2409.966813840521	64.64034302498658	2673.011289995502	
161	22.455	-2257.536165961518	801.5064699383146	2505.894070366066	-2176.355979996224	751.7584792631955	2386.391765260995	-2180.313128012303	672.2688330721891	2488.344356955919	-2406.119669534133	473.4934789251428	2351.283225498561	-2413.95139033319	486.1491603156776	2596.024678490658	-2611.499865156268	503.1424961565801	2423.616923028402	-2615.306269381761	506.940981445514	2518.044016532281	-2479.224496480871	466.3135338516637	2272.70435728117	-2525.286660076353	473.275936950287	2679.275773577741	-2344.888335762374	356.658596758016	2255.912568102995	-2264.747499797416	487.1260578803432	2334.362512653618	-2258.647381867549	316.0172966253788	2311.92289331556	-2144.773562582626	377.7299621617688	2244.321319205186	-2126.371361744678	356.8837554814764	2380.588579450502	-2239.579335739759	315.7257559773453	2229.977583230445	-2237.456823234993	178.2565440658164	2249.909246455169	-2309.760713612804	235.8832433315018	2303.873854698927	-2342.327412964881	96.15349586157072	2225.338272306734	-2318.823913539528	93.9949011028411	2309.598209576276	-2206.032314556467	61.06426815619378	2271.701380645001	-2246.49488467818	55.84749235963748	2191.781909535187	-2415.347814649491	68.80476270456285	2266.500486352792	-2242.870909052976	476.1329833710337	2579.110501420965	-2360.606064383934	408.1463236296125	2699.233765771223	-2309.856056587238	352.9122947203365	2690.944047758374	-2170.039807549205	398.9882703760567	2709.556303445226	-2146.08524459704	348.0162582484764	2577.589940278086	-2234.194307416123	171.1745225780591	2684.30461489856	-2328.9733655177	214.4639037730045	2659.854250938148	-2266.726364055544	263.6310925014574	2727.791194024624	-2344.566043918835	93.51706110037487	2722.720100974022	-2323.848213050186	87.59534385164351	2640.613597369673	-2203.178685758704	64.66256514825169	2687.599497012508	-2239.71119932871	53.01608187114401	2763.518479616864	-2409.976710274489	64.59751162989805	2673.060383821475	
162	22.46	-2257.831353720211	802.2924671831305	2506.109638673312	-2176.66260055246	752.7333518732121	2386.53079133336	-2180.658824449737	673.3103419029727	2488.48787830866	-2406.367488413604	474.332519988921	2351.349738043707	-2414.254494224687	486.9910263832333	2596.142037289434	-2611.751175912599	504.1533160641133	2423.657681168151	-2615.568487125291	507.9435577548167	2518.101644822052	-2479.520593152048	467.1959071723259	2272.702770325621	-2525.575513932678	474.174516931417	2679.319239812712	-2345.249227407938	357.2311152562617	2256.062767722776	-2264.929611734563	487.6309072718173	2334.39882240932	-2258.93876700589	316.3448889133866	2312.120940754763	-2145.088859727533	377.9351339311909	2244.504749901884	-2126.801414133299	357.1166128684161	2380.730046061038	-2239.791534157035	315.8513807333002	2230.089190792617	-2237.573874218783	178.3185488525845	2249.954172552421	-2309.965277798142	235.9211871929978	2303.905733857748	-2342.37912188404	96.13409340462901	2225.323729239439	-2318.897505507155	94.01049187569258	2309.583885549783	-2206.058781634316	61.06771009344792	2271.739754828845	-2246.527175410397	55.85693539711298	2191.778761491848	-2415.382223526639	68.77776270133506	2266.486845943333	-2243.111650479163	476.5352589420777	2579.018816860743	-2360.893260539558	408.68646853974	2699.141111476273	-2310.16862506647	353.3689514390549	2690.742773739439	-2170.310647096742	399.1521728026652	2709.310816879291	-2146.552621180444	348.1482856600766	2577.378027076988	-2234.30320197434	171.2592062842098	2684.245355264798	-2329.153517741174	214.4575834548303	2659.843375967843	-2266.859063554982	263.72126169506	2727.723378912856	-2344.627060844353	93.46625499564026	2722.742742727781	-2323.888113422719	87.58429321809695	2640.620929022802	-2203.211465584441	64.6988772149341	2687.589325869758	-2239.717345825066	53.00833142411172	2763.503230783731	-2409.986543556503	64.55671584215622	2673.109461218211	
